<svg id="a20a4f5e-1e54-4588-8aaa-87e6cd8eac68" data-name="f2c6e13c-f730-4d32-8643-073b4f1286ff" xmlns="http://www.w3.org/2000/svg" viewBox="0 0 62 42.58"><ellipse cx="29" cy="14.49" rx="23" ry="12.5" style="fill:#ffdfe0"/><ellipse cx="36" cy="29.49" rx="23" ry="12.5" style="fill:#ffdfe0"/><ellipse cx="54" cy="21.5" rx="6.71" ry="14.18" transform="translate(-4.11 12.16) rotate(-20.39)" style="fill:#ffdfe0"/><ellipse cx="14" cy="25.99" rx="14" ry="7" style="fill:#ffdfe0"/><circle cx="32.7" cy="22.99" r="14.65" style="fill:#fff"/><path d="M26.3,40s6.5-7.35,12.4,0" transform="translate(0 -8.01)" style="fill:#fff;stroke:#000;stroke-linecap:round;stroke-miterlimit:10"/><path d="M40.76,24.81s.32-4.89,5.4-2.1" transform="translate(0 -8.01)" style="fill:none;stroke:#f41b00;stroke-linecap:round;stroke-miterlimit:10;stroke-width:0.75px"/><path d="M46.65,21s-4.89-.32-2.1-5.4" transform="translate(0 -8.01)" style="fill:none;stroke:#f41b00;stroke-linecap:round;stroke-miterlimit:10;stroke-width:0.75px"/><path d="M43.08,15s-.33,4.89-5.4,2.1" transform="translate(0 -8.01)" style="fill:none;stroke:#f41b00;stroke-linecap:round;stroke-miterlimit:10;stroke-width:0.75px"/><path d="M37.19,18.8s4.89.32,2.1,5.4" transform="translate(0 -8.01)" style="fill:none;stroke:#f41b00;stroke-linecap:round;stroke-miterlimit:10;stroke-width:0.75px"/><polyline points="24.95 22.99 26.98 20.99 29 18.99" style="fill:#fff;stroke:#000;stroke-miterlimit:10"/><line x1="24.95" y1="18.76" x2="29" y2="22.99" style="fill:#fff;stroke:#000;stroke-miterlimit:10"/><polyline points="36.33 22.99 38.35 20.99 40.38 18.99" style="fill:#fff;stroke:#000;stroke-miterlimit:10"/><line x1="36.33" y1="18.76" x2="40.38" y2="22.99" style="fill:#fff;stroke:#000;stroke-miterlimit:10"/><polyline points="9.05 12.91 11.07 10.91 13.1 8.91" style="fill:#fff;stroke:#f41b00;stroke-linecap:round;stroke-miterlimit:10"/><line x1="9.05" y1="8.67" x2="13.1" y2="12.91" style="fill:#fff;stroke:#f41b00;stroke-linecap:round;stroke-miterlimit:10"/><polyline points="45.17 41.58 48.93 37.86 52.69 34.15" style="fill:#fff;stroke:#f41b00;stroke-linecap:round;stroke-miterlimit:10;stroke-width:2px"/><line x1="45.17" y1="33.71" x2="52.69" y2="41.58" style="fill:#fff;stroke:#f41b00;stroke-linecap:round;stroke-miterlimit:10;stroke-width:2px"/></svg>